# xmcd CD database file
#
# Track frame offsets:
#	150
#	15740
#	32219
#	52801
#	66291
#	78957
#	92033
#	110641
#	124425
#	138365
#	152361
#	166277
#	177136
#	191168
#	204960
#	224080
#
# Disc length: 3197 seconds
#
# Revision: 2
# Processed by: cddbd v1.5.2PL0 Copyright (c) Steve Scherf et al.
# Submitted via: CDex 1.82
#
DISCID=de0c7b10
DTITLE=Various Artist - Best Of Chrismas Gospel
DYEAR=2001
DGENRE=Gospel
TTITLE0=Lee Patterson Singers - Oh Happy Day
TTITLE1=The Golden Gate Quartet - White Chrismas
TTITLE2=United Gospel Singers - Jingle Bells
TTITLE3=Mahalia Jackson - Hark! The Herald Angels Sing!
TTITLE4=The Golden Gate Quartet - He's Got The Whole World In His Hand
TTITLE5=United Gospel Singers - Down By The Riverside
TTITLE6=The Edwin Hawkins Singers - Lay Down (Candles In The Rain)
TTITLE7=The Golden Gate Quartet - Go Down Moses (Let My People Go)
TTITLE8=Mahalia Jackson - Go Tell It On The Mountain
TTITLE9=United Gospel Singers - I Ask The Lord
TTITLE10=Mahalia Jackson - Jesus Is With Me
TTITLE11=The Golden Gate Quartet - Rudolph, The red Nosed Reindeer
TTITLE12=Mahalia Jackson - Walk Over God's Heaven
TTITLE13=United Gospel Singers - Joshua Fit The Battle Of Jericho
TTITLE14=The Edwin Hawkins Singers - Jesus Lover Of My Soul
TTITLE15=The Golden Gate Quartet - Amen
EXTD=YEAR: 2001
EXTT0=
EXTT1=
EXTT2=
EXTT3=
EXTT4=
EXTT5=
EXTT6=
EXTT7=
EXTT8=
EXTT9=
EXTT10=
EXTT11=
EXTT12=
EXTT13=
EXTT14=
EXTT15=
PLAYORDER=
